<svg width="48" height="46" viewBox="0 0 48 46" fill="none" xmlns="http://www.w3.org/2000/svg">
<path d="M0.416992 45.5833L11.4587 14.6667L31.3337 34.5417L0.416992 45.5833ZM28.1316 24.7146L25.8128 22.3958L38.1795 10.0292C39.3573 8.85139 40.7743 8.2625 42.4305 8.2625C44.0868 8.2625 45.5038 8.85139 46.6816 10.0292L48.0066 11.3542L45.6878 13.6729L44.3628 12.3479C43.8475 11.8326 43.2034 11.575 42.4305 11.575C41.6576 11.575 41.0135 11.8326 40.4982 12.3479L28.1316 24.7146ZM19.2982 15.8812L16.9795 13.5625L18.3045 12.2375C18.8198 11.7222 19.0774 11.0965 19.0774 10.3604C19.0774 9.62431 18.8198 8.99861 18.3045 8.48333L16.8691 7.04792L19.1878 4.72917L20.6232 6.16458C21.801 7.34236 22.3899 8.74097 22.3899 10.3604C22.3899 11.9799 21.801 13.3785 20.6232 14.5562L19.2982 15.8812ZM23.7149 20.2979L21.3962 17.9792L29.3462 10.0292C29.8614 9.51389 30.1191 8.86979 30.1191 8.09687C30.1191 7.32396 29.8614 6.67986 29.3462 6.16458L25.8128 2.63125L28.1316 0.3125L31.6649 3.84583C32.8427 5.02361 33.4316 6.44063 33.4316 8.09687C33.4316 9.75313 32.8427 11.1701 31.6649 12.3479L23.7149 20.2979ZM32.5482 29.1312L30.2295 26.8125L33.7628 23.2792C34.9406 22.1014 36.3576 21.5125 38.0139 21.5125C39.6701 21.5125 41.0871 22.1014 42.2649 23.2792L45.7982 26.8125L43.4795 29.1312L39.9462 25.5979C39.4309 25.0826 38.7868 24.825 38.0139 24.825C37.2409 24.825 36.5969 25.0826 36.0816 25.5979L32.5482 29.1312Z" fill="#0C190E"/>
</svg>
