<svg width="53" height="53" viewBox="0 0 53 53" fill="none" xmlns="http://www.w3.org/2000/svg">
<path d="M26.5 0C23.0346 0 20.3846 2.65 20.3846 6.11538V18.3462C20.3846 21.8115 23.0346 24.4615 26.5 24.4615H38.7308L46.8846 32.6154V24.4615C50.35 24.4615 53 21.8115 53 18.3462V6.11538C53 2.65 50.35 0 46.8846 0H26.5ZM35.0371 6.11538H38.5392L41.9801 18.3462H38.9224L38.0927 15.2885H35.035L34.2727 18.3462H31.5962L35.0371 6.11538ZM36.6923 8.15385C36.4885 8.96923 36.2602 9.964 36.0543 10.5755L35.4835 13.25H37.9032L37.3283 10.5735C36.9227 9.964 36.6923 8.96923 36.6923 8.15385ZM6.11538 20.3846C2.65 20.3846 0 23.0346 0 26.5V38.7308C0 42.1962 2.65 44.8462 6.11538 44.8462V53L14.2692 44.8462H26.5C29.9654 44.8462 32.6154 42.1962 32.6154 38.7308V26.5H26.5C22.6269 26.5 19.557 23.85 18.5378 20.3846H6.11538ZM15.4801 26.3084C18.9455 26.3084 20.5762 29.1622 20.5762 32.4238C20.5762 35.2776 19.5957 37.0878 17.965 37.9032C18.7803 38.3108 19.7466 38.5269 20.7658 38.7308L20.0034 40.7692C18.5765 40.3615 17.0966 39.7255 15.6697 39.112C15.4658 38.9081 15.1091 38.9224 14.9052 38.9224C12.4591 38.7185 10.1923 36.6923 10.1923 32.6154C10.1923 29.15 12.2185 26.3084 15.4801 26.3084ZM15.4801 28.5385C13.8493 28.5385 13.0584 30.3731 13.0584 32.6154C13.0584 35.0615 13.8493 36.6923 15.4801 36.6923C17.1108 36.6923 17.9629 34.8577 17.9629 32.6154C17.9629 30.3731 17.1108 28.5385 15.4801 28.5385Z" fill="#0C190E"/>
</svg>
