<svg width="61" height="61" viewBox="0 0 61 61" fill="none" xmlns="http://www.w3.org/2000/svg">
<path d="M57.7715 0.421875H2.42773C1.09678 0.421875 0.0214844 1.49717 0.0214844 2.82812V58.1719C0.0214844 59.5028 1.09678 60.5781 2.42773 60.5781H57.7715C59.1024 60.5781 60.1777 59.5028 60.1777 58.1719V2.82812C60.1777 1.49717 59.1024 0.421875 57.7715 0.421875ZM50.8234 17.98H46.0185C42.2512 17.98 41.5218 19.7696 41.5218 22.4015V28.199H50.5151L49.3421 37.2751H41.5218V60.5781H32.1449V37.2826H24.302V28.199H32.1449V21.5066C32.1449 13.739 36.8897 9.50547 43.8228 9.50547C47.1464 9.50547 49.9963 9.75361 50.831 9.86641V17.98H50.8234Z" fill="#F8F6EE"/>
</svg>
