<svg width="31" height="45" viewBox="0 0 31 45" fill="none" xmlns="http://www.w3.org/2000/svg">
<path d="M15.4998 15.875C13.3651 15.875 11.5432 15.1205 10.0342 13.6115C8.52518 12.1025 7.77067 10.2806 7.77067 8.14585C7.77067 6.01113 8.52518 4.18926 10.0342 2.68023C11.5432 1.1712 13.3651 0.416687 15.4998 0.416687C17.6346 0.416687 19.4564 1.1712 20.9655 2.68023C22.4745 4.18926 23.229 6.01113 23.229 8.14585C23.229 10.2806 22.4745 12.1025 20.9655 13.6115C19.4564 15.1205 17.6346 15.875 15.4998 15.875ZM15.4998 44.5834L2.24984 31.3334C1.51373 30.5972 0.961643 29.7691 0.593587 28.849C0.225532 27.9288 0.0415039 26.9167 0.0415039 25.8125C0.0415039 23.641 0.787184 21.8095 2.27855 20.3182C3.76991 18.8268 5.60062 18.0819 7.77067 18.0834C8.83803 18.0834 9.82295 18.2858 10.7254 18.6906C11.6279 19.0955 12.4464 19.666 13.1811 20.4021L15.4998 22.7209L17.8186 20.4021C18.5547 19.666 19.374 19.0955 20.2765 18.6906C21.1789 18.2858 22.1631 18.0834 23.229 18.0834C25.4005 18.0834 27.232 18.829 28.7233 20.3204C30.2147 21.8118 30.9596 23.6425 30.9582 25.8125C30.9582 26.9167 30.7741 27.9288 30.4061 28.849C30.038 29.7691 29.4859 30.5972 28.7498 31.3334L15.4998 44.5834Z" fill="#103F36"/>
</svg>
