<svg width="77" height="77" viewBox="0 0 77 77" fill="none" xmlns="http://www.w3.org/2000/svg">
<path d="M41.7984 6.41669C45.4078 6.42631 47.2397 6.44556 48.8214 6.49048L49.4438 6.51294C50.1625 6.5386 50.8716 6.57069 51.7282 6.60919C55.1418 6.7696 57.4711 7.3086 59.5148 8.10106C61.6323 8.91598 63.4161 10.0196 65.2 11.8003C66.8314 13.4041 68.0937 15.3442 68.8992 17.4854C69.6916 19.5291 70.2306 21.8584 70.3911 25.2753C70.4296 26.1287 70.4616 26.8377 70.4873 27.5596L70.5066 28.182C70.5547 29.7605 70.5739 31.5925 70.5804 35.2019L70.5836 37.5953V41.7982C70.5914 44.1384 70.5668 46.4785 70.5098 48.818L70.4905 49.4404C70.4649 50.1623 70.4328 50.8714 70.3943 51.7248C70.2338 55.1416 69.6884 57.4677 68.8992 59.5146C68.0961 61.6571 66.8334 63.5976 65.2 65.1998C63.5957 66.8306 61.6558 68.0929 59.5148 68.899C57.4711 69.6914 55.1418 70.2304 51.7282 70.3909C50.9669 70.4267 50.2054 70.4588 49.4438 70.4871L48.8214 70.5064C47.2397 70.5513 45.4078 70.5737 41.7984 70.5801L39.405 70.5834H35.2053C32.864 70.5914 30.5228 70.5668 28.1822 70.5096L27.5598 70.4903C26.7982 70.4615 26.0367 70.4283 25.2755 70.3909C21.8618 70.2304 19.5326 69.6914 17.4856 68.899C15.3446 68.0949 13.4053 66.8323 11.8037 65.1998C10.1708 63.5965 8.90728 61.6564 8.10127 59.5146C7.30881 57.4709 6.76981 55.1416 6.60939 51.7248C6.57365 50.9635 6.54156 50.202 6.51314 49.4404L6.4971 48.818C6.43798 46.4786 6.41124 44.1384 6.41689 41.7982V35.2019C6.40794 32.8617 6.43147 30.5215 6.48747 28.182L6.50993 27.5596C6.5356 26.8377 6.56768 26.1287 6.60618 25.2753C6.7666 21.8584 7.3056 19.5324 8.09806 17.4854C8.90371 15.342 10.1697 13.4013 11.8069 11.8003C13.4081 10.1687 15.3461 8.90631 17.4856 8.10106C19.5326 7.3086 21.8586 6.7696 25.2755 6.60919C26.1289 6.57069 26.8411 6.5386 27.5598 6.51294L28.1822 6.49369C30.5217 6.43668 32.8619 6.41208 35.2021 6.4199L41.7984 6.41669ZM38.5002 22.4584C34.2457 22.4584 30.1654 24.1485 27.1571 27.1569C24.1487 30.1652 22.4586 34.2455 22.4586 38.5C22.4586 42.7545 24.1487 46.8348 27.1571 49.8432C30.1654 52.8516 34.2457 54.5417 38.5002 54.5417C42.7547 54.5417 46.835 52.8516 49.8434 49.8432C52.8518 46.8348 54.5419 42.7545 54.5419 38.5C54.5419 34.2455 52.8518 30.1652 49.8434 27.1569C46.835 24.1485 42.7547 22.4584 38.5002 22.4584ZM38.5002 28.875C39.7642 28.8748 41.0158 29.1236 42.1837 29.6071C43.3515 30.0906 44.4127 30.7994 45.3066 31.693C46.2005 32.5866 46.9097 33.6475 47.3936 34.8152C47.8774 35.9829 48.1266 37.2344 48.1268 38.4984C48.127 39.7624 47.8783 41.014 47.3948 42.1819C46.9113 43.3497 46.2025 44.4109 45.3089 45.3048C44.4152 46.1987 43.3543 46.9079 42.1866 47.3918C41.019 47.8756 39.7674 48.1248 38.5034 48.125C35.9507 48.125 33.5026 47.111 31.6975 45.3059C29.8925 43.5009 28.8784 41.0527 28.8784 38.5C28.8784 35.9473 29.8925 33.4992 31.6975 31.6941C33.5026 29.8891 35.9507 28.875 38.5034 28.875M55.3472 17.6459C54.2836 17.6459 53.2635 18.0684 52.5114 18.8205C51.7593 19.5726 51.3368 20.5926 51.3368 21.6563C51.3368 22.7199 51.7593 23.74 52.5114 24.4921C53.2635 25.2442 54.2836 25.6667 55.3472 25.6667C56.4108 25.6667 57.4309 25.2442 58.183 24.4921C58.9351 23.74 59.3576 22.7199 59.3576 21.6563C59.3576 20.5926 58.9351 19.5726 58.183 18.8205C57.4309 18.0684 56.4108 17.6459 55.3472 17.6459Z" fill="#F8F6EE"/>
</svg>
