<svg width="78" height="77" viewBox="0 0 78 77" fill="none" xmlns="http://www.w3.org/2000/svg">
<path d="M61.1576 9.625C62.8594 9.625 64.4915 10.301 65.6948 11.5044C66.8982 12.7078 67.5742 14.3399 67.5742 16.0417V60.9583C67.5742 62.6601 66.8982 64.2922 65.6948 65.4956C64.4915 66.699 62.8594 67.375 61.1576 67.375H16.2409C14.5391 67.375 12.907 66.699 11.7036 65.4956C10.5003 64.2922 9.82422 62.6601 9.82422 60.9583V16.0417C9.82422 14.3399 10.5003 12.7078 11.7036 11.5044C12.907 10.301 14.5391 9.625 16.2409 9.625H61.1576ZM59.5534 59.3542V42.35C59.5534 39.5761 58.4514 36.9157 56.49 34.9543C54.5285 32.9928 51.8682 31.8908 49.0942 31.8908C46.3671 31.8908 43.1909 33.5592 41.6509 36.0617V32.5004H32.6996V59.3542H41.6509V43.5371C41.6509 41.0667 43.6401 39.0454 46.1105 39.0454C47.3017 39.0454 48.4442 39.5186 49.2866 40.361C50.1289 41.2033 50.6021 42.3458 50.6021 43.5371V59.3542H59.5534ZM22.2726 27.4633C23.7021 27.4633 25.073 26.8955 26.0839 25.8846C27.0947 24.8738 27.6626 23.5029 27.6626 22.0733C27.6626 19.0896 25.2563 16.6512 22.2726 16.6512C20.8345 16.6512 19.4554 17.2225 18.4386 18.2393C17.4217 19.2562 16.8505 20.6353 16.8505 22.0733C16.8505 25.0571 19.2888 27.4633 22.2726 27.4633ZM26.7321 59.3542V32.5004H17.8451V59.3542H26.7321Z" fill="#F8F6EE"/>
</svg>
