<svg width="125" height="22" viewBox="0 0 125 22" fill="none" xmlns="http://www.w3.org/2000/svg">
<path d="M11 5.70885e-08L13.4697 7.60081L21.4616 7.60081L14.996 12.2984L17.4656 19.8992L11 15.2016L4.53436 19.8992L7.00402 12.2984L0.538379 7.60081L8.53035 7.60081L11 5.70885e-08Z" fill="#081C18"/>
<path d="M36.667 5.70885e-08L39.1366 7.60081L47.1286 7.60081L40.663 12.2984L43.1326 19.8992L36.667 15.2016L30.2014 19.8992L32.671 12.2984L26.2054 7.60081L34.1973 7.60081L36.667 5.70885e-08Z" fill="#081C18"/>
<path d="M62.333 5.70885e-08L64.8027 7.60081L72.7946 7.60081L66.329 12.2984L68.7986 19.8992L62.333 15.2016L55.8674 19.8992L58.337 12.2984L51.8714 7.60081L59.8634 7.60081L62.333 5.70885e-08Z" fill="#081C18"/>
<path d="M88 5.70885e-08L90.4697 7.60081L98.4616 7.60081L91.996 12.2984L94.4656 19.8992L88 15.2016L81.5344 19.8992L84.004 12.2984L77.5384 7.60081L85.5303 7.60081L88 5.70885e-08Z" fill="#081C18"/>
<path d="M114 5.70885e-08L116.47 7.60081L124.462 7.60081L117.996 12.2984L120.466 19.8992L114 15.2016L107.534 19.8992L110.004 12.2984L103.538 7.60081L111.53 7.60081L114 5.70885e-08Z" fill="#081C18"/>
</svg>
