<svg width="38" height="35" viewBox="0 0 38 35" fill="none" xmlns="http://www.w3.org/2000/svg">
<path d="M27.0195 2.464L27.0195 2.46395L23.7134 2.98546C23.7134 2.98547 23.7133 2.98548 23.7133 2.98548C23.5712 3.00805 23.4259 3.00047 23.287 2.96323C23.148 2.926 23.0185 2.85997 22.9067 2.76943C22.9067 2.76937 22.9066 2.76931 22.9065 2.76925L20.281 0.645831C20.2809 0.645801 20.2809 0.64577 20.2809 0.64574C20.2808 0.645724 20.2808 0.645708 20.2808 0.645692C20.1936 0.575308 20.0872 0.532963 19.9755 0.524231C19.8637 0.515494 19.7519 0.540824 19.6548 0.596886C19.5577 0.652947 19.4798 0.737109 19.4315 0.838284C19.3832 0.939459 19.3666 1.0529 19.3841 1.16366L19.9101 4.49826C19.9101 4.4986 19.9102 4.49895 19.9102 4.49929C19.9329 4.64138 19.9254 4.78668 19.8882 4.92568C19.8509 5.0648 19.7847 5.19447 19.6939 5.30624C19.6937 5.30642 19.6936 5.3066 19.6934 5.30678L17.5706 7.93168C17.5001 8.01889 17.4577 8.1254 17.4489 8.23719C17.4402 8.34897 17.4655 8.46077 17.5215 8.55787L27.0195 2.464ZM27.0195 2.464L27.0265 2.4628M27.0195 2.464L27.0265 2.4628M27.0265 2.4628C27.1301 2.44494 27.2366 2.45566 27.3346 2.49381M27.0265 2.4628L27.3346 2.49381M23.8152 30.1296L23.8151 30.1298C23.7324 30.232 23.6826 30.3568 23.6723 30.4879C23.662 30.619 23.6917 30.7501 23.7574 30.864L23.3243 31.1139M23.8152 30.1296L33.3414 33.5707L29.7849 30.695C29.7848 30.6949 29.7847 30.6948 29.7847 30.6948C29.6676 30.6001 29.532 30.531 29.3866 30.4921C29.2412 30.4531 29.0893 30.4451 28.9406 30.4686C28.9405 30.4686 28.9404 30.4686 28.9403 30.4687L24.4222 31.1809L24.422 31.1809C24.2921 31.2014 24.1591 31.1821 24.0404 31.1255C23.9217 31.0689 23.823 30.9776 23.7572 30.8638L23.3243 31.1139M23.8152 30.1296L26.6911 26.5729C26.6912 26.5728 26.6912 26.5727 26.6913 26.5727C26.786 26.4556 26.855 26.32 26.894 26.1746L26.411 26.0452L23.8152 30.1296ZM23.3243 31.1139C23.4406 31.3153 23.6152 31.4766 23.8251 31.5768C24.035 31.6769 24.2703 31.7111 24.5 31.6748L23.4264 29.8152C23.2801 29.996 23.1921 30.2169 23.1739 30.4487C23.1556 30.6806 23.2081 30.9125 23.3243 31.1139ZM26.2052 21.2104L26.9174 25.7283L26.9174 25.7286L26.4235 25.8064L26.2052 21.2104ZM26.2052 21.2104C26.2052 21.2103 26.2052 21.2103 26.2052 21.2102C26.1849 21.0804 26.2043 20.9475 26.2609 20.829C26.3176 20.7104 26.4088 20.6118 26.5226 20.5461C26.6364 20.4804 26.7675 20.4507 26.8985 20.4609C27.0295 20.4711 27.1544 20.5208 27.2566 20.6034M26.2052 21.2104L27.2566 20.6034M27.2566 20.6034L30.8132 23.4791C30.8132 23.4791 30.8133 23.4792 30.8134 23.4793C30.9304 23.5739 31.066 23.643 31.2114 23.682L31.3408 23.199L31.2114 23.682C31.3569 23.7209 31.509 23.7289 31.6577 23.7054L36.1437 22.9977L36.1437 22.9977L36.1494 22.9967C36.2711 22.9761 36.3962 22.9888 36.5112 23.0335C36.625 23.0778 36.7247 23.1517 36.8002 23.2475C36.8856 23.3628 36.9306 23.5031 36.9279 23.6467C36.9253 23.7916 36.8743 23.9315 36.7831 24.0441L36.7828 24.0444L33.907 27.6012C33.9069 27.6012 33.9068 27.6013 33.9068 27.6014C33.8121 27.7184 33.7431 27.854 33.7041 27.9994C33.6651 28.1448 33.6571 28.2968 33.6806 28.4455C33.6806 28.4456 33.6806 28.4456 33.6807 28.4457L34.3928 32.9636C34.4132 33.0935 34.3938 33.2264 34.3372 33.345C34.2805 33.4636 34.1893 33.5622 34.0754 33.628C33.9616 33.6937 33.8306 33.7234 33.6995 33.7131C33.5686 33.7029 33.4438 33.6533 33.3416 33.5708L27.2566 20.6034ZM27.3346 2.49381C27.4316 2.53156 27.5166 2.59476 27.5806 2.67672M27.3346 2.49381L27.5806 2.67672M27.5806 2.67672C27.6536 2.77502 27.6921 2.89474 27.6899 3.01722C27.6878 3.1407 27.6445 3.25994 27.5669 3.35604C27.5669 3.35607 27.5669 3.3561 27.5668 3.35613C27.5668 3.35617 27.5668 3.3562 27.5667 3.35624L25.4433 5.98176C25.4433 5.98184 25.4432 5.98191 25.4432 5.98198L25.443 5.98222L25.8317 6.29664M27.5806 2.67672L17.5215 8.55791C17.5776 8.655 17.6618 8.73282 17.763 8.78113C17.8641 8.82945 17.9776 8.84598 18.0884 8.82854L21.423 8.30252C21.4233 8.30248 21.4235 8.30244 21.4238 8.3024C21.566 8.27964 21.7114 8.28714 21.8504 8.32441C21.9894 8.36165 22.119 8.42777 22.2307 8.51846C22.231 8.51869 22.2313 8.51893 22.2315 8.51916L24.8564 10.642C24.9436 10.7125 25.0501 10.7549 25.1619 10.7636C25.2737 10.7723 25.3855 10.747 25.4826 10.6909C25.5797 10.6349 25.6575 10.5507 25.7059 10.4496C25.7542 10.3484 25.7707 10.2349 25.7533 10.1242L25.2271 6.78867L25.227 6.78809L25.7209 6.71018C25.7094 6.63733 25.7132 6.56287 25.7323 6.49162C25.7514 6.42037 25.7853 6.35394 25.8317 6.29664M25.8317 6.29664L27.9557 3.67045L25.8317 6.29664ZM1.02373 26.6484L1.02476 26.6471L6.04399 20.4413L6.04452 20.4406C6.18925 20.261 6.29484 20.0532 6.35453 19.8304C6.41421 19.6077 6.42669 19.3749 6.39113 19.147L6.39101 19.1463L5.14796 11.2593L5.1479 11.2589C5.10683 10.9996 5.14532 10.734 5.25831 10.4971C5.3713 10.2602 5.55346 10.0632 5.78077 9.93192C6.00807 9.80069 6.26982 9.74147 6.53147 9.76207C6.79313 9.78267 7.04239 9.88212 7.24635 10.0473L7.24661 10.0475L13.4525 15.0667L13.4531 15.0673C13.6327 15.212 13.8405 15.3176 14.0633 15.3773L14.1927 14.8943L14.0633 15.3773C14.2861 15.437 14.5188 15.4494 14.7467 15.4139L14.7475 15.4138L22.6345 14.1707L22.6349 14.1707C22.8941 14.1296 23.1597 14.1681 23.3966 14.2811C23.6335 14.3941 23.8306 14.5762 23.9618 14.8035C24.093 15.0308 24.1523 15.2926 24.1317 15.5542C24.1111 15.8159 24.0116 16.0651 23.8464 16.2691L23.8462 16.2694L18.827 22.4752L18.8265 22.4759C18.6817 22.6555 18.5761 22.8633 18.5165 23.0861L18.9994 23.2155L18.5165 23.0861C18.4568 23.3088 18.4443 23.5416 18.4799 23.7695L18.48 23.7702L19.7153 31.6094L19.7153 31.6094L19.7163 31.6155C19.7623 31.8856 19.7239 32.1633 19.6064 32.4108C19.4892 32.6577 19.2989 32.8626 19.0613 32.9978C18.837 33.1223 18.5806 33.1768 18.325 33.1543C18.0688 33.1317 17.8253 33.0328 17.6259 32.8702L17.6244 32.869L11.4185 27.8498L11.4178 27.8492C11.2383 27.7045 11.0304 27.5989 10.8077 27.5392C10.5849 27.4795 10.3521 27.4671 10.1243 27.5026L10.1235 27.5027L2.2365 28.7458L2.2348 28.7461C1.97631 28.7877 1.71126 28.7495 1.47507 28.6365C1.23889 28.5235 1.04282 28.3411 0.913071 28.1136L0.910514 28.1093C0.778454 27.8832 0.71853 27.6222 0.73876 27.3611C0.758989 27.1001 0.858408 26.8514 1.02373 26.6484Z" fill="#F8F6EE" stroke="#F8F6EE"/>
</svg>
