<svg width="47" height="41" viewBox="0 0 47 41" fill="none" xmlns="http://www.w3.org/2000/svg">
<path d="M23.5 0.631622C22.6309 0.631622 21.7702 0.802811 20.9673 1.13542C20.1643 1.46802 19.4347 1.95553 18.8201 2.5701C18.2055 3.18467 17.718 3.91428 17.3854 4.71725C17.0528 5.52023 16.8816 6.38086 16.8816 7.25C16.8816 8.11913 17.0528 8.97976 17.3854 9.78274C17.718 10.5857 18.2055 11.3153 18.8201 11.9299C19.4347 12.5445 20.1643 13.032 20.9673 13.3646C21.7702 13.6972 22.6309 13.8684 23.5 13.8684C25.2553 13.8684 26.9387 13.1711 28.1799 11.9299C29.4211 10.6887 30.1184 9.0053 30.1184 7.25C30.1184 5.49469 29.4211 3.81129 28.1799 2.5701C26.9387 1.32891 25.2553 0.631622 23.5 0.631622ZM38.4062 3.9375C37.0885 3.9375 35.8246 4.46099 34.8928 5.39281C33.961 6.32463 33.4375 7.58845 33.4375 8.90625C33.4375 10.224 33.961 11.4879 34.8928 12.4197C35.8246 13.3515 37.0885 13.875 38.4062 13.875C39.724 13.875 40.9879 13.3515 41.9197 12.4197C42.8515 11.4879 43.375 10.224 43.375 8.90625C43.375 7.58845 42.8515 6.32463 41.9197 5.39281C40.9879 4.46099 39.724 3.9375 38.4062 3.9375ZM8.59375 3.9375C7.27596 3.9375 6.01214 4.46099 5.08031 5.39281C4.14849 6.32463 3.625 7.58845 3.625 8.90625C3.625 10.224 4.14849 11.4879 5.08031 12.4197C6.01214 13.3515 7.27596 13.875 8.59375 13.875C9.91154 13.875 11.1754 13.3515 12.1072 12.4197C13.039 11.4879 13.5625 10.224 13.5625 8.90625C13.5625 7.58845 13.039 6.32463 12.1072 5.39281C11.1754 4.46099 9.91154 3.9375 8.59375 3.9375ZM13.5625 20.4768C13.5686 19.6023 13.9203 18.7657 14.5409 18.1495C15.1614 17.5333 16.0005 17.1875 16.875 17.1875H30.125C31.0035 17.1875 31.8461 17.5365 32.4673 18.1577C33.0885 18.7789 33.4375 19.6215 33.4375 20.5V30.4375C33.4373 31.48 33.2741 32.5161 32.9539 33.5082C32.2204 35.7564 30.7095 37.6695 28.6924 38.9039C26.6753 40.1383 24.2842 40.6133 21.9485 40.2434C19.6128 39.8735 17.4854 38.6831 15.9484 36.8859C14.4114 35.0886 13.5655 32.8023 13.5625 30.4375V20.5V20.4768ZM10.25 20.5C10.25 19.2909 10.5713 18.1614 11.1378 17.1875H3.625C2.74647 17.1875 1.90392 17.5365 1.28271 18.1577C0.661495 18.7789 0.3125 19.6215 0.3125 20.5V28.7812C0.312049 30.1371 0.644499 31.4723 1.28065 32.6696C1.91681 33.8669 2.83721 34.8897 3.96103 35.6482C5.08485 36.4067 6.3777 36.8776 7.72606 37.0197C9.07442 37.1617 10.437 36.9706 11.6943 36.4629C10.7408 34.5966 10.2458 32.53 10.25 30.4342V20.5ZM36.75 20.5V30.4375C36.75 32.6072 36.2299 34.6543 35.3058 36.4629C36.563 36.9706 37.9256 37.1617 39.2739 37.0197C40.6223 36.8776 41.9152 36.4067 43.039 35.6482C44.1628 34.8897 45.0832 33.8669 45.7193 32.6696C46.3555 31.4723 46.688 30.1371 46.6875 28.7812V20.5C46.6875 19.6215 46.3385 18.7789 45.7173 18.1577C45.0961 17.5365 44.2535 17.1875 43.375 17.1875H35.8623C36.4254 18.1614 36.75 19.2909 36.75 20.5Z" fill="#0C190E"/>
</svg>
