<svg width="20" height="22" viewBox="0 0 20 22" fill="none" xmlns="http://www.w3.org/2000/svg">
<path d="M11.8668 20.367C11.4331 20.773 10.8534 21 10.2501 21C9.64687 21 9.0672 20.773 8.63351 20.367C4.66205 16.626 -0.660214 12.4469 1.93529 6.37966C3.33866 3.09916 6.70737 1 10.2501 1C13.7929 1 17.1616 3.09916 18.565 6.37966C21.1572 12.4393 15.848 16.6389 11.8668 20.367Z" stroke="#0C190E" stroke-width="1.5"/>
<path d="M13.749 10C13.749 11.933 12.182 13.5 10.249 13.5C8.31603 13.5 6.74902 11.933 6.74902 10C6.74902 8.067 8.31603 6.5 10.249 6.5C12.182 6.5 13.749 8.067 13.749 10Z" stroke="#0C190E" stroke-width="1.5"/>
</svg>
