<svg width="29" height="29" viewBox="0 0 29 29" fill="none" xmlns="http://www.w3.org/2000/svg">
<path d="M27.0781 0.828125H1.92188C1.31689 0.828125 0.828125 1.31689 0.828125 1.92188V27.0781C0.828125 27.6831 1.31689 28.1719 1.92188 28.1719H27.0781C27.6831 28.1719 28.1719 27.6831 28.1719 27.0781V1.92188C28.1719 1.31689 27.6831 0.828125 27.0781 0.828125ZM23.9199 8.80908H21.7358C20.0234 8.80908 19.6919 9.62256 19.6919 10.8188V13.4541H23.7798L23.2466 17.5796H19.6919V28.1719H15.4297V17.583H11.8647V13.4541H15.4297V10.4121C15.4297 6.88135 17.5864 4.95703 20.7378 4.95703C22.2485 4.95703 23.5439 5.06982 23.9233 5.12109V8.80908H23.9199Z" fill="#0C190E"/>
</svg>
