<svg width="31" height="31" viewBox="0 0 31 31" fill="none" xmlns="http://www.w3.org/2000/svg">
<path d="M16.9994 0.916626C18.64 0.921001 19.4727 0.929751 20.1916 0.950168L20.4746 0.960376C20.8012 0.972043 21.1235 0.986626 21.5129 1.00413C23.0646 1.07704 24.1233 1.32204 25.0523 1.68225C26.0148 2.05267 26.8256 2.55433 27.6364 3.36371C28.378 4.09272 28.9518 4.97457 29.3179 5.94788C29.6781 6.87683 29.9231 7.93558 29.996 9.48871C30.0135 9.87663 30.0281 10.1989 30.0398 10.527L30.0485 10.81C30.0704 11.5275 30.0791 12.3602 30.0821 14.0008L30.0835 15.0887V16.9991C30.0871 18.0628 30.0759 19.1266 30.05 20.19L30.0412 20.4729C30.0296 20.801 30.015 21.1233 29.9975 21.5112C29.9246 23.0643 29.6766 24.1216 29.3179 25.052C28.9528 26.0259 28.3789 26.9079 27.6364 27.6362C26.9072 28.3775 26.0254 28.9513 25.0523 29.3177C24.1233 29.6779 23.0646 29.9229 21.5129 29.9958C21.1669 30.0121 20.8207 30.0267 20.4746 30.0395L20.1916 30.0483C19.4727 30.0687 18.64 30.0789 16.9994 30.0818L15.9114 30.0833H14.0025C12.9383 30.087 11.8741 30.0758 10.8102 30.0498L10.5273 30.041C10.1811 30.0279 9.83496 30.0128 9.48894 29.9958C7.93727 29.9229 6.87852 29.6779 5.94811 29.3177C4.97492 28.9522 4.09342 28.3783 3.3654 27.6362C2.62317 26.9075 2.04885 26.0256 1.68248 25.052C1.32227 24.1231 1.07727 23.0643 1.00436 21.5112C0.988109 21.1652 0.973526 20.8191 0.960607 20.4729L0.953316 20.19C0.926441 19.1266 0.914287 18.0629 0.916857 16.9991V14.0008C0.912787 12.9371 0.923483 11.8734 0.948941 10.81L0.959149 10.527C0.970815 10.1989 0.985399 9.87663 1.0029 9.48871C1.07582 7.93558 1.32082 6.87829 1.68102 5.94788C2.04723 4.97357 2.6227 4.09145 3.36686 3.36371C4.0947 2.62211 4.97561 2.04827 5.94811 1.68225C6.87852 1.32204 7.93581 1.07704 9.48894 1.00413C9.87686 0.986626 10.2006 0.972043 10.5273 0.960376L10.8102 0.951626C11.8736 0.925715 12.9373 0.914534 14.001 0.918084L16.9994 0.916626ZM15.5002 8.20829C13.5663 8.20829 11.7117 8.97652 10.3442 10.344C8.97675 11.7114 8.20852 13.5661 8.20852 15.5C8.20852 17.4338 8.97675 19.2885 10.3442 20.6559C11.7117 22.0234 13.5663 22.7916 15.5002 22.7916C17.4341 22.7916 19.2887 22.0234 20.6562 20.6559C22.0236 19.2885 22.7919 17.4338 22.7919 15.5C22.7919 13.5661 22.0236 11.7114 20.6562 10.344C19.2887 8.97652 17.4341 8.20829 15.5002 8.20829ZM15.5002 11.125C16.0747 11.1249 16.6436 11.2379 17.1745 11.4577C17.7053 11.6775 18.1877 11.9997 18.594 12.4059C19.0003 12.812 19.3227 13.2943 19.5426 13.825C19.7626 14.3558 19.8758 14.9247 19.8759 15.4992C19.876 16.0738 19.7629 16.6427 19.5432 17.1735C19.3234 17.7044 19.0012 18.1867 18.595 18.593C18.1888 18.9994 17.7066 19.3217 17.1758 19.5417C16.6451 19.7616 16.0762 19.8749 15.5016 19.875C14.3413 19.875 13.2285 19.414 12.4081 18.5936C11.5876 17.7731 11.1266 16.6603 11.1266 15.5C11.1266 14.3396 11.5876 13.2268 12.4081 12.4064C13.2285 11.5859 14.3413 11.125 15.5016 11.125M23.1579 6.02079C22.6744 6.02079 22.2108 6.21285 21.8689 6.55471C21.527 6.89658 21.335 7.36024 21.335 7.84371C21.335 8.32718 21.527 8.79084 21.8689 9.13271C22.2108 9.47457 22.6744 9.66663 23.1579 9.66663C23.6414 9.66663 24.105 9.47457 24.4469 9.13271C24.7888 8.79084 24.9808 8.32718 24.9808 7.84371C24.9808 7.36024 24.7888 6.89658 24.4469 6.55471C24.105 6.21285 23.6414 6.02079 23.1579 6.02079Z" fill="#0C190E"/>
</svg>
