<svg width="23" height="19" viewBox="0 0 23 19" fill="none" xmlns="http://www.w3.org/2000/svg">
<path d="M1.5 4.87476L9.66492 10.5902C10.3261 11.053 10.6567 11.2844 11.0163 11.3741C11.3339 11.4532 11.6661 11.4532 11.9837 11.3741C12.3433 11.2844 12.6739 11.053 13.3351 10.5902L21.5 4.87476M6.3 17.8748H16.7C18.3802 17.8748 19.2202 17.8748 19.862 17.5478C20.4265 17.2602 20.8854 16.8012 21.173 16.2367C21.5 15.595 21.5 14.7549 21.5 13.0748V6.67476C21.5 4.9946 21.5 4.15452 21.173 3.51278C20.8854 2.9483 20.4265 2.48936 19.862 2.20174C19.2202 1.87476 18.3802 1.87476 16.7 1.87476H6.3C4.61984 1.87476 3.77976 1.87476 3.13803 2.20174C2.57354 2.48936 2.1146 2.9483 1.82698 3.51278C1.5 4.15452 1.5 4.9946 1.5 6.67476V13.0748C1.5 14.7549 1.5 15.595 1.82698 16.2367C2.1146 16.8012 2.57354 17.2602 3.13803 17.5478C3.77976 17.8748 4.61984 17.8748 6.3 17.8748Z" stroke="#0C190E" stroke-width="2" stroke-linecap="round" stroke-linejoin="round"/>
</svg>
