<svg width="25" height="25" viewBox="0 0 25 25" fill="none" xmlns="http://www.w3.org/2000/svg">
<path d="M11.2429 5.96707C11.6494 5.90699 12.0686 5.87476 12.5004 5.87476C17.6054 5.87476 20.9553 10.3796 22.0807 12.1616C22.2169 12.3773 22.285 12.4851 22.3231 12.6514C22.3518 12.7763 22.3517 12.9734 22.3231 13.0983C22.2849 13.2647 22.2164 13.3732 22.0792 13.5903C21.7793 14.0649 21.3222 14.7319 20.7165 15.4552M7.22432 7.58979C5.06225 9.05646 3.59445 11.0941 2.92111 12.16C2.78428 12.3766 2.71587 12.4849 2.67774 12.6512C2.6491 12.7762 2.64909 12.9732 2.67771 13.0981C2.71583 13.2644 2.78393 13.3723 2.92013 13.5879C4.04554 15.3699 7.39541 19.8748 12.5004 19.8748C14.5588 19.8748 16.3319 19.1424 17.7888 18.1514M3.50042 3.87476L21.5004 21.8748M10.3791 10.7534C9.8362 11.2963 9.50042 12.0463 9.50042 12.8748C9.50042 14.5316 10.8436 15.8748 12.5004 15.8748C13.3288 15.8748 14.0788 15.539 14.6217 14.9961" stroke="#0C190E" stroke-width="2" stroke-linecap="round" stroke-linejoin="round"/>
</svg>
