<svg width="25" height="25" viewBox="0 0 25 25" fill="none" xmlns="http://www.w3.org/2000/svg">
<path d="M7.07757 15.9816C5.6628 16.824 1.95336 18.5441 4.21266 20.6966C5.31631 21.748 6.54549 22.5 8.09087 22.5H16.9091C18.4545 22.5 19.6837 21.748 20.7873 20.6966C23.0466 18.5441 19.3372 16.824 17.9224 15.9816C14.6048 14.0061 10.3952 14.0061 7.07757 15.9816Z" stroke="#103F36" stroke-width="1.5" stroke-linecap="round" stroke-linejoin="round"/>
<path d="M17 7C17 9.48528 14.9853 11.5 12.5 11.5C10.0147 11.5 8 9.48528 8 7C8 4.51472 10.0147 2.5 12.5 2.5C14.9853 2.5 17 4.51472 17 7Z" stroke="#103F36" stroke-width="1.5"/>
</svg>
